PathFileType	4	(X/Y/Z)	/Users/itak/Documents/Research/Walk-IL/dataset/trc/00150_00007.trc
DataRate	CameraRate	NumFrames	NumMarkers	Units	OrigDataRate	OrigDataStartFrame	OrigNumFrames
100.000000	100.000000	4	53	mm	100.000000	0	557
Frame#	Time	RPSI			LPSI			L3			STRN			T10			C7			CLAV			RBAK			LBAK			LSHO			LUPA			LAEL			LAOL			LWTS			LWPS			LFRA			LIFD			LHPS			LHTS			RSHO			RUPA			RAEL			RAOL			RWTS			RWPS			RFRA			RIFD			RHTS			RHPS			RBHD			LFHD			RFHD			LBHD			LHIP			RHIP			RASI			LASI			LKNE			LTHI			LANK			LTIP			LTOE			LMT1			LMT5			LHEE			RKNE			RTHI			RANK			RTIP			RTOE			RMT1			RMT5			RHEE			
		X1	Y1	Z1	X2	Y2	Z2	X3	Y3	Z3	X4	Y4	Z4	X5	Y5	Z5	X6	Y6	Z6	X7	Y7	Z7	X8	Y8	Z8	X9	Y9	Z9	X10	Y10	Z10	X11	Y11	Z11	X12	Y12	Z12	X13	Y13	Z13	X14	Y14	Z14	X15	Y15	Z15	X16	Y16	Z16	X17	Y17	Z17	X18	Y18	Z18	X19	Y19	Z19	X20	Y20	Z20	X21	Y21	Z21	X22	Y22	Z22	X23	Y23	Z23	X24	Y24	Z24	X25	Y25	Z25	X26	Y26	Z26	X27	Y27	Z27	X28	Y28	Z28	X29	Y29	Z29	X30	Y30	Z30	X31	Y31	Z31	X32	Y32	Z32	X33	Y33	Z33	X34	Y34	Z34	X35	Y35	Z35	X36	Y36	Z36	X37	Y37	Z37	X38	Y38	Z38	X39	Y39	Z39	X40	Y40	Z40	X41	Y41	Z41	X42	Y42	Z42	X43	Y43	Z43	X44	Y44	Z44	X45	Y45	Z45	X46	Y46	Z46	X47	Y47	Z47	X48	Y48	Z48	X49	Y49	Z49	X50	Y50	Z50	X51	Y51	Z51	X52	Y52	Z52	X53	Y53	Z53	

1	0	-1342.914184570312	1125.4033203125	-509.2127685546875	-1337.708374023438	1125.028930664062	-643.524169921875	-1348.103271484375	1155.859375	-579.583984375	-1140.875610351562	1358.605224609375	-575.2243041992188	-1392.210571289062	1300.978393554688	-584.4574584960938	-1368.182373046875	1594.968994140625	-599.2855224609375	-1183.603515625	1491.934814453125	-581.8366088867188	-1419.158081054688	1409.425903320312	-512.91162109375	-1369.356567382812	1573.786376953125	-701.6876831054688	-1279.908203125	1560.60498046875	-765.9246215820312	-1292.848022460938	1427.416259765625	-834.2644653320312	-1270.463500976562	1207.244995117188	-851.7918701171875	-1338.016235351562	1194.340454101562	-797.978271484375	-1168.234008789062	952.3978881835938	-798.3900146484375	-1246.936645507812	924.6683349609375	-830.245849609375	-1251.025512695312	1091.302124023438	-853.0098266601562	-1154.860473632812	759.6453857421875	-773.3590698242188	-1216.112915039062	850.3594360351562	-827.2835083007812	-1151.1005859375	864.1331176757812	-806.7095947265625	-1321.118286132812	1578.99658203125	-415.5355529785156	-1339.418334960938	1506.038818359375	-351.3934326171875	-1342.212036132812	1211.442138671875	-325.5361633300781	-1337.1064453125	1207.771606445312	-422.6116333007812	-1190.756713867188	973.5473022460938	-314.4555969238281	-1268.158447265625	955.2579345703125	-290.9226684570312	-1318.789916992188	1139.899658203125	-305.1802673339844	-1161.947143554688	778.047119140625	-322.7440490722656	-1160.49072265625	866.1431274414062	-301.9865112304688	-1230.077392578125	856.802490234375	-279.420166015625	-1342.65380859375	1766.711791992188	-521.2181396484375	-1183.458618164062	1843.057739257812	-653.2897338867188	-1186.148681640625	1851.087524414062	-523.9132690429688	-1347.542602539062	1761.494995117188	-656.7102661132812	-1245.099487304688	1033.940307617188	-745.7484130859375	-1220.405517578125	1032.7373046875	-386.8027648925781	-1137.406860351562	1103.84912109375	-438.0157165527344	-1137.8896484375	1098.916137695312	-704.7113647460938	-1241.934936523438	534.0549926757812	-713.1676025390625	-1254.538330078125	680.1285400390625	-741.3384399414062	-1364.712280273438	34.95210266113281	-700.3063354492188	-1348.516723632812	290.8361206054688	-737.1661376953125	-1132.2421875	35.94462966918945	-645.5428466796875	-1213.990966796875	41.03099822998047	-611.6564331054688	-1240.032348632812	33.17195129394531	-727.3310546875	-1433.003051757812	36.54508590698242	-637.7676391601562	-1244.287231445312	538.7548217773438	-417.8494262695312	-1209.484375	816.967529296875	-391.292724609375	-1353.92626953125	29.64836883544922	-431.8775634765625	-1275.119262695312	407.37255859375	-406.90576171875	-1122.873779296875	41.16738510131836	-489.6278686523438	-1184.991455078125	31.21481132507324	-530.378173828125	-1219.2119140625	38.20359802246094	-413.7197265625	-1412.566284179688	32.06700897216797	-478.9252624511719	
2	0.01	-1342.939697265625	1125.434936523438	-509.1781311035156	-1337.754638671875	1125.071166992188	-643.478271484375	-1348.132080078125	1155.868774414062	-579.5389404296875	-1140.787475585938	1358.56494140625	-575.2575073242188	-1392.16796875	1301.06494140625	-584.4094848632812	-1367.910034179688	1594.99365234375	-599.197509765625	-1183.496948242188	1491.89453125	-581.8814086914062	-1419.078125	1409.55517578125	-512.8678588867188	-1369.23046875	1573.836547851562	-701.6671142578125	-1279.807373046875	1560.595825195312	-765.9437255859375	-1292.860961914062	1427.431396484375	-834.2996215820312	-1270.61669921875	1207.262573242188	-851.8998413085938	-1338.142944335938	1194.357788085938	-798.0337524414062	-1168.573974609375	952.3045043945312	-798.6950073242188	-1247.205322265625	924.6503295898438	-830.463134765625	-1251.234985351562	1091.318603515625	-853.1636962890625	-1155.301147460938	759.5738525390625	-773.747314453125	-1216.512573242188	850.3483276367188	-827.5564575195312	-1151.462890625	864.0546875	-807.046142578125	-1320.837158203125	1579.04345703125	-415.4877624511719	-1339.124877929688	1506.11474609375	-351.355224609375	-1342.28076171875	1211.50732421875	-325.6251220703125	-1337.227783203125	1207.884887695312	-422.6876220703125	-1191.075317382812	973.454833984375	-314.6664123535156	-1268.53466796875	955.2313232421875	-291.1278381347656	-1318.9638671875	1139.942016601562	-305.2848510742188	-1162.612182617188	777.8567504882812	-323.0110473632812	-1160.957275390625	865.955322265625	-302.2716674804688	-1230.503051757812	856.721435546875	-279.6773071289062	-1342.307250976562	1766.849365234375	-521.2619018554688	-1182.969848632812	1842.953125	-653.24267578125	-1185.731689453125	1850.972534179688	-523.8804931640625	-1347.186889648438	1761.642578125	-656.7604370117188	-1245.134643554688	1033.946533203125	-745.7232666015625	-1220.426635742188	1032.731567382812	-386.7626037597656	-1137.41064453125	1103.812133789062	-438.0023498535156	-1137.925903320312	1098.9033203125	-704.6892700195312	-1242.031616210938	534.04833984375	-713.1280517578125	-1254.62451171875	680.1405029296875	-741.3229370117188	-1364.702758789062	34.98258209228516	-700.282958984375	-1348.574096679688	290.8707885742188	-737.1370239257812	-1132.238525390625	35.94253921508789	-645.5424194335938	-1213.990112304688	41.03220748901367	-611.6533203125	-1240.034790039062	33.17704391479492	-727.325927734375	-1433.001586914062	36.55806732177734	-637.74755859375	-1244.441162109375	538.7702026367188	-417.7951965332031	-1209.58642578125	816.9588623046875	-391.2559509277344	-1353.926147460938	29.63645362854004	-431.8769226074219	-1275.244750976562	407.4162292480469	-406.8777465820312	-1122.8779296875	41.16289138793945	-489.6309509277344	-1184.989624023438	31.21580505371094	-530.3786010742188	-1219.211059570312	38.20321273803711	-413.7163696289062	-1412.575561523438	32.06082916259766	-478.91943359375	
3	0.02	-1342.96826171875	1125.475463867188	-509.1294555664062	-1337.814575195312	1125.122680664062	-643.4183959960938	-1348.166625976562	1155.888671875	-579.4735107421875	-1140.684204101562	1358.515625	-575.2949829101562	-1392.113525390625	1301.169799804688	-584.3406982421875	-1367.578491210938	1595.02880859375	-599.0859375	-1183.358032226562	1491.8466796875	-581.93212890625	-1418.973999023438	1409.709594726562	-512.806396484375	-1369.079711914062	1573.900268554688	-701.6387939453125	-1279.685424804688	1560.591796875	-765.9629516601562	-1292.87646484375	1427.455932617188	-834.3367919921875	-1270.802490234375	1207.28662109375	-852.0220336914062	-1338.299560546875	1194.385864257812	-798.091796875	-1168.957763671875	952.2079467773438	-799.0545043945312	-1247.527954101562	924.6405639648438	-830.7222900390625	-1251.499145507812	1091.342529296875	-853.346435546875	-1155.8017578125	759.4912719726562	-774.2190551757812	-1216.990356445312	850.3409423828125	-827.8829956054688	-1151.887573242188	863.9700927734375	-807.4478759765625	-1320.50048828125	1579.098266601562	-415.4324035644531	-1338.785034179688	1506.201904296875	-351.3063049316406	-1342.390991210938	1211.585693359375	-325.7508850097656	-1337.38525390625	1208.021484375	-422.7974853515625	-1191.4580078125	973.354248046875	-314.9407958984375	-1268.995361328125	955.1976928710938	-291.4070739746094	-1319.192993164062	1139.987915039062	-305.4339904785156	-1163.390258789062	777.6436767578125	-323.3606567382812	-1161.50732421875	865.7625732421875	-302.6380920410156	-1231.042236328125	856.6378784179688	-280.0303955078125	-1341.870361328125	1767.011474609375	-521.3173217773438	-1182.361450195312	1842.83154296875	-653.1885375976562	-1185.21728515625	1850.830810546875	-523.8338623046875	-1346.73779296875	1761.82080078125	-656.8092041015625	-1245.183959960938	1033.95654296875	-745.6903076171875	-1220.450561523438	1032.723022460938	-386.7138061523438	-1137.412109375	1103.764892578125	-437.9876098632812	-1137.968383789062	1098.890502929688	-704.6633911132812	-1242.156005859375	534.0424194335938	-713.0801391601562	-1254.74365234375	680.1603393554688	-741.2997436523438	-1364.6982421875	35.02236938476562	-700.2556762695312	-1348.648681640625	290.9126281738281	-737.0974731445312	-1132.234252929688	35.94041061401367	-645.5426025390625	-1213.974975585938	41.04148101806641	-611.6427001953125	-1240.036010742188	33.18272018432617	-727.319580078125	-1433.000122070312	36.57180786132812	-637.7198486328125	-1244.639038085938	538.7853393554688	-417.71875	-1209.714111328125	816.9449462890625	-391.2069702148438	-1353.927734375	29.62081527709961	-431.8743896484375	-1275.396484375	407.4716491699219	-406.8390197753906	-1122.8837890625	41.15884780883789	-489.6330261230469	-1184.98876953125	31.21748924255371	-530.3792114257812	-1219.213012695312	38.20083236694336	-413.7106018066406	-1412.586303710938	32.05341339111328	-478.9114379882812	
4	0.03	-1342.997680664062	1125.523681640625	-509.0660095214844	-1337.88623046875	1125.179931640625	-643.3457641601562	-1348.201782226562	1155.922119140625	-579.3856201171875	-1140.573364257812	1358.460205078125	-575.3329467773438	-1392.04931640625	1301.28759765625	-584.2507934570312	-1367.208251953125	1595.07568359375	-598.9566650390625	-1183.19091796875	1491.794555664062	-581.9838256835938	-1418.848266601562	1409.878784179688	-512.7271118164062	-1368.9130859375	1573.97509765625	-701.6027221679688	-1279.548706054688	1560.596069335938	-765.9785766601562	-1292.89306640625	1427.490966796875	-834.3712768554688	-1271.010620117188	1207.317626953125	-852.1478881835938	-1338.477416992188	1194.427001953125	-798.1448974609375	-1169.350708007812	952.1211547851562	-799.4417114257812	-1247.886596679688	924.6447143554688	-831.0048828125	-1251.804077148438	1091.374755859375	-853.5447387695312	-1156.314575195312	759.4063110351562	-774.7431030273438	-1217.511962890625	850.3405151367188	-828.2407836914062	-1152.343139648438	863.8892211914062	-807.8877563476562	-1320.130249023438	1579.156616210938	-415.3731689453125	-1338.426391601562	1506.293090820312	-351.2486267089844	-1342.550170898438	1211.672485351562	-325.9141540527344	-1337.575927734375	1208.172729492188	-422.943359375	-1191.883056640625	973.25830078125	-315.2713317871094	-1269.510620117188	955.1586303710938	-291.7557983398438	-1319.473510742188	1140.03173828125	-305.629150390625	-1164.2158203125	777.4291381835938	-323.7854614257812	-1162.099609375	865.5901489257812	-303.0726318359375	-1231.657958984375	856.56201171875	-280.4714660644531	-1341.364135742188	1767.184814453125	-521.3802490234375	-1181.664428710938	1842.703125	-653.1311645507812	-1184.628051757812	1850.669677734375	-523.7721557617188	-1346.21484375	1762.018188476562	-656.8474731445312	-1245.248413085938	1033.970703125	-745.6500854492188	-1220.474975585938	1032.711791992188	-386.6590881347656	-1137.408935546875	1103.708984375	-437.97265625	-1138.01513671875	1098.878295898438	-704.6350708007812	-1242.303833007812	534.0386352539062	-713.027099609375	-1254.896240234375	680.1896362304688	-741.26806640625	-1364.699951171875	35.06861877441406	-700.225830078125	-1348.739013671875	290.9591369628906	-737.047119140625	-1132.2294921875	35.93913650512695	-645.5438842773438	-1213.9423828125	41.06031799316406	-611.6229248046875	-1240.03662109375	33.18843460083008	-727.3124389648438	-1432.998168945312	36.5840950012207	-637.6846313476562	-1244.874877929688	538.7984008789062	-417.6202392578125	-1209.862426757812	816.92529296875	-391.1467590332031	-1353.931030273438	29.60224723815918	-431.8693542480469	-1275.566040039062	407.5364074707031	-406.7884826660156	-1122.891723632812	41.15587615966797	-489.6333312988281	-1184.98974609375	31.22020149230957	-530.3797607421875	-1219.218017578125	38.19580459594727	-413.7021179199219	-1412.597534179688	32.04381561279297	-478.9017028808594	
